<?xml version="1.0" encoding="iso-8859-1"?>
<!-- Generator: Adobe Illustrator 21.0.0, SVG Export Plug-In . SVG Version: 6.00 Build 0)  -->
<svg version="1.1" id="Capa_1" xmlns="http://www.w3.org/2000/svg" xmlns:xlink="http://www.w3.org/1999/xlink" x="0px" y="0px"
	 viewBox="0 0 512 512" style="enable-background:new 0 0 512 512;" xml:space="preserve">
<linearGradient id="SVGID_1_" gradientUnits="userSpaceOnUse" x1="74.9807" y1="439.0193" x2="437.0193" y2="76.9807" gradientTransform="matrix(1 0 0 -1 0 514)">
	<stop  offset="0" style="stop-color:#FB7A5B"/>
	<stop  offset="1" style="stop-color:#FF2796"/>
</linearGradient>
<circle style="fill:url(#SVGID_1_);" cx="256" cy="256" r="256"/>
<g>
	
		<linearGradient id="SVGID_2_" gradientUnits="userSpaceOnUse" x1="55" y1="143.273" x2="430.69" y2="143.273" gradientTransform="matrix(1 0 0 -1 0 514)">
		<stop  offset="0" style="stop-color:#4A8DC6"/>
		<stop  offset="1" style="stop-color:#092339"/>
	</linearGradient>
	<polygon style="fill:url(#SVGID_2_);" points="256,353.797 256,342.121 240.376,349.014 217.858,342.121 226.527,355.124 
		169.546,380.263 169.546,399.333 256,399.333 342.454,399.333 342.454,380.263 	"/>
	
		<linearGradient id="SVGID_3_" gradientUnits="userSpaceOnUse" x1="55" y1="171.879" x2="430.69" y2="171.879" gradientTransform="matrix(1 0 0 -1 0 514)">
		<stop  offset="0" style="stop-color:#4A8DC6"/>
		<stop  offset="1" style="stop-color:#092339"/>
	</linearGradient>
	<polygon style="fill:url(#SVGID_3_);" points="418.737,342.121 390.131,323.05 361.525,342.121 361.525,361.192 418.737,361.192 	
		"/>
	
		<linearGradient id="SVGID_4_" gradientUnits="userSpaceOnUse" x1="55" y1="171.879" x2="430.69" y2="171.879" gradientTransform="matrix(1 0 0 -1 0 514)">
		<stop  offset="0" style="stop-color:#4A8DC6"/>
		<stop  offset="1" style="stop-color:#092339"/>
	</linearGradient>
	<polygon style="fill:url(#SVGID_4_);" points="150.475,342.121 121.869,323.05 93.262,342.121 93.262,361.192 150.475,361.192 	"/>
</g>
<linearGradient id="SVGID_5_" gradientUnits="userSpaceOnUse" x1="111.466" y1="267.8685" x2="401.805" y2="267.8685" gradientTransform="matrix(1 0 0 -1 0 514)">
	<stop  offset="0" style="stop-color:#AFFF96"/>
	<stop  offset="1" style="stop-color:#009655"/>
</linearGradient>
<path style="fill:url(#SVGID_5_);" d="M361.525,131.98l-12.695-12.682c-5.06-4.552-11.779-7.298-19.122-7.298h-26.032
	l-69.926,25.428L208.323,112h-26.031c-7.342,0-14.062,2.746-19.122,7.298l-12.695,12.682l-39.009,121.548l58.08-58.075v184.81H256
	h86.454v-184.81l59.351,59.346L361.525,131.98z"/>
<polygon style="fill:#4FC247;" points="93.262,189.18 93.262,342.121 150.475,342.121 150.475,131.98 "/>
<linearGradient id="SVGID_6_" gradientUnits="userSpaceOnUse" x1="361.525" y1="276.9495" x2="418.737" y2="276.9495" gradientTransform="matrix(1 0 0 -1 0 514)">
	<stop  offset="0" style="stop-color:#77AAD4"/>
	<stop  offset="1" style="stop-color:#185E98"/>
</linearGradient>
<polygon style="fill:url(#SVGID_6_);" points="361.525,131.98 361.525,342.121 418.737,342.121 418.737,189.18 "/>
<linearGradient id="SVGID_7_" gradientUnits="userSpaceOnUse" x1="208.323" y1="244.03" x2="303.677" y2="244.03" gradientTransform="matrix(1 0 0 -1 0 514)">
	<stop  offset="0" style="stop-color:#185E98"/>
	<stop  offset="1" style="stop-color:#092339"/>
</linearGradient>
<path style="fill:url(#SVGID_7_);" d="M256,178.748c-26.289,0-47.677,21.388-47.677,47.677v87.09
	c0,26.289,21.388,47.677,47.677,47.677s47.677-21.388,47.677-47.677v-87.09C303.677,200.136,282.289,178.748,256,178.748z"/>
<linearGradient id="SVGID_8_" gradientUnits="userSpaceOnUse" x1="55" y1="378.1615" x2="430.69" y2="378.1615" gradientTransform="matrix(1 0 0 -1 0 514)">
	<stop  offset="0" style="stop-color:#4A8DC6"/>
	<stop  offset="1" style="stop-color:#092339"/>
</linearGradient>
<path style="fill:url(#SVGID_8_);" d="M256,112h-47.677c0,26.289,21.388,47.677,47.677,47.677s47.677-21.388,47.677-47.677H256z"/>
<g>
	
		<linearGradient id="SVGID_9_" gradientUnits="userSpaceOnUse" x1="246.47" y1="244.035" x2="265.54" y2="244.035" gradientTransform="matrix(1 0 0 -1 0 514)">
		<stop  offset="0" style="stop-color:#77AAD4"/>
		<stop  offset="1" style="stop-color:#185E98"/>
	</linearGradient>
	<rect x="246.47" y="260.43" style="fill:url(#SVGID_9_);" width="19.07" height="19.07"/>
	
		<linearGradient id="SVGID_10_" gradientUnits="userSpaceOnUse" x1="246.47" y1="205.885" x2="265.54" y2="205.885" gradientTransform="matrix(1 0 0 -1 0 514)">
		<stop  offset="0" style="stop-color:#77AAD4"/>
		<stop  offset="1" style="stop-color:#185E98"/>
	</linearGradient>
	<rect x="246.47" y="298.58" style="fill:url(#SVGID_10_);" width="19.07" height="19.07"/>
	
		<linearGradient id="SVGID_11_" gradientUnits="userSpaceOnUse" x1="246.47" y1="282.175" x2="265.54" y2="282.175" gradientTransform="matrix(1 0 0 -1 0 514)">
		<stop  offset="0" style="stop-color:#77AAD4"/>
		<stop  offset="1" style="stop-color:#185E98"/>
	</linearGradient>
	<rect x="246.47" y="222.29" style="fill:url(#SVGID_11_);" width="19.07" height="19.07"/>
</g>
<g>
</g>
<g>
</g>
<g>
</g>
<g>
</g>
<g>
</g>
<g>
</g>
<g>
</g>
<g>
</g>
<g>
</g>
<g>
</g>
<g>
</g>
<g>
</g>
<g>
</g>
<g>
</g>
<g>
</g>
</svg>
